<svg width="192" height="192" viewBox="0 0 192 192" xmlns="http://www.w3.org/2000/svg">
<path d="M130.147 61.8528C153.477 85.1833 153.478 123.009 130.147 146.34L101.985 174.502C78.8366 197.65 41.4183 197.831 18.0472 175.045L17.4978 174.502C-5.8326 151.172 -5.8326 113.346 17.4978 90.0152L45.6602 61.8528C48.4293 59.0837 51.4026 56.6428 54.5317 54.531C44.7194 69.0702 42.0045 86.9716 46.3841 103.372L38.6196 111.137C26.9544 122.802 26.9544 141.715 38.6196 153.38L39.1717 153.919C50.8741 165.043 69.3802 164.863 80.8631 153.38L109.025 125.218C120.508 113.735 120.688 95.2291 109.564 83.5267L109.025 82.9746C100.229 74.1779 87.3105 72.0157 76.4868 76.4861C77.9445 72.9567 80.1068 69.6497 82.9752 66.7812L103.374 46.3828C113.181 49.002 122.453 54.1585 130.147 61.8528Z" fill="#1e293b"/>
<path d="M174.502 17.4973C197.832 40.8277 197.832 78.6538 174.502 101.984L146.34 130.147C143.571 132.916 140.597 135.356 137.468 137.468C147.28 122.928 149.996 105.027 145.616 88.6264L153.38 80.8625C165.045 69.1973 165.045 50.2842 153.38 38.619C141.715 26.9542 122.803 26.9546 111.138 38.6197L82.9752 66.782C71.3104 78.4472 71.3105 97.359 82.9752 109.024C91.7718 117.821 104.689 119.983 115.512 115.513C114.055 119.042 111.893 122.35 109.025 125.218L88.6269 145.616C78.819 142.997 69.5479 137.84 61.8534 130.146C38.5235 106.816 38.5234 68.9906 61.8534 45.6603L90.0158 17.498C113.346 -5.83233 151.172 -5.83276 174.502 17.4973Z" fill="#5dbbba"/>
</svg>
